<?xml version="1.0" encoding="utf-8" ?>
<svg xmlns="http://www.w3.org/2000/svg" xmlns:ev="http://www.w3.org/2001/xml-events" xmlns:xlink="http://www.w3.org/1999/xlink" baseProfile="full" height="1120" version="1.1" viewBox="0 0 1800 1120" width="1800">
  <defs>
    <marker id="arrow" markerHeight="9" markerUnits="strokeWidth" markerWidth="13" orient="auto" refX="13" refY="4.5">
      <path d="M0,0 L13,4.5 L0,9 z" fill="#0E3A59"/>
    </marker>
    <marker id="arrowMuted" markerHeight="9" markerUnits="strokeWidth" markerWidth="13" orient="auto" refX="13" refY="4.5">
      <path d="M0,0 L13,4.5 L0,9 z" fill="#5A6578"/>
    </marker>
    <marker id="arrowOrange" markerHeight="9" markerUnits="strokeWidth" markerWidth="13" orient="auto" refX="13" refY="4.5">
      <path d="M0,0 L13,4.5 L0,9 z" fill="#D06B18"/>
    </marker>
    <marker id="arrowGreen" markerHeight="9" markerUnits="strokeWidth" markerWidth="13" orient="auto" refX="13" refY="4.5">
      <path d="M0,0 L13,4.5 L0,9 z" fill="#187765"/>
    </marker>
    <linearGradient id="headerGrad" x1="0%" x2="100%" y1="0%" y2="0%">
      <stop offset="0" stop-color="#0E3A59"/>
      <stop offset="1" stop-color="#1B6D9E"/>
    </linearGradient>
  </defs>
  <rect fill="#F7F9FC" height="1120" width="1800" x="0" y="0"/>
  <defs>
    <marker id="arrow" markerHeight="9" markerUnits="strokeWidth" markerWidth="13" orient="auto" refX="13" refY="4.5">
      <path d="M0,0 L13,4.5 L0,9 z" fill="#0E3A59"/>
    </marker>
    <marker id="arrowMuted" markerHeight="9" markerUnits="strokeWidth" markerWidth="13" orient="auto" refX="13" refY="4.5">
      <path d="M0,0 L13,4.5 L0,9 z" fill="#5A6578"/>
    </marker>
    <marker id="arrowOrange" markerHeight="9" markerUnits="strokeWidth" markerWidth="13" orient="auto" refX="13" refY="4.5">
      <path d="M0,0 L13,4.5 L0,9 z" fill="#D06B18"/>
    </marker>
    <marker id="arrowGreen" markerHeight="9" markerUnits="strokeWidth" markerWidth="13" orient="auto" refX="13" refY="4.5">
      <path d="M0,0 L13,4.5 L0,9 z" fill="#187765"/>
    </marker>
    <linearGradient id="headerGrad" x1="0%" x2="100%" y1="0%" y2="0%">
      <stop offset="0" stop-color="#0E3A59"/>
      <stop offset="1" stop-color="#1B6D9E"/>
    </linearGradient>
  </defs>
  <rect fill="#182230" height="88" opacity="0.075" rx="28" ry="28" stroke="none" width="1680" x="64" y="41"/>
  <rect fill="url(#headerGrad)" height="88" rx="28" ry="28" stroke="none" stroke-width="0" width="1680" x="60" y="35"/>
  <text fill="white" font-family="Inter, Arial, Helvetica, sans-serif" font-size="34" font-weight="800" text-anchor="start" x="90" y="91">SSM-WM Architecture for Humanoid Robot State Prediction and MPC</text>
  <text fill="#D8E9F3" font-family="Inter, Arial, Helvetica, sans-serif" font-size="16" font-weight="400" text-anchor="start" x="90" y="116">Code-aligned method overview: state-action encoding, gated diagonal SSM memory, prediction rollout, and MPC planning</text>
  <rect fill="#D9EDF8" height="36" rx="18.0" ry="18.0" stroke="#78AFCB" stroke-width="1.6" width="128" x="1248" y="59"/>
  <text fill="#0E3A59" font-family="Inter, Arial, Helvetica, sans-serif" font-size="17" font-weight="800" text-anchor="middle" x="1312.0" y="82.76">O(T log T)</text>
  <rect fill="#DFF3EF" height="36" rx="18.0" ry="18.0" stroke="#68B1A6" stroke-width="1.6" width="112" x="1390" y="59"/>
  <text fill="#187765" font-family="Inter, Arial, Helvetica, sans-serif" font-size="17" font-weight="800" text-anchor="middle" x="1446.0" y="82.76">O(1) step</text>
  <rect fill="#FFF0DF" height="36" rx="18.0" ry="18.0" stroke="#E0A064" stroke-width="1.6" width="130" x="1515" y="59"/>
  <text fill="#D06B18" font-family="Inter, Arial, Helvetica, sans-serif" font-size="17" font-weight="800" text-anchor="middle" x="1580.0" y="82.76">0.24M params</text>
  <rect fill="#D9EDF8" height="34" rx="17.0" ry="17.0" stroke="#83B6D1" stroke-width="1.6" width="115" x="70" y="142"/>
  <text fill="#0E3A59" font-family="Inter, Arial, Helvetica, sans-serif" font-size="16" font-weight="800" text-anchor="middle" x="127.5" y="164.44">data flow</text>
  <rect fill="#FFF0DF" height="34" rx="17.0" ry="17.0" stroke="#E0A064" stroke-width="1.6" width="155" x="205" y="142"/>
  <text fill="#D06B18" font-family="Inter, Arial, Helvetica, sans-serif" font-size="16" font-weight="800" text-anchor="middle" x="282.5" y="164.44">control loop</text>
  <rect fill="#182230" height="345" opacity="0.075" rx="26" ry="26" stroke="none" width="330" x="74" y="171"/>
  <rect fill="white" height="345" rx="26" ry="26" stroke="#B8C4D1" stroke-width="2" width="330" x="70" y="165"/>
  <text fill="#0E3A59" font-family="Inter, Arial, Helvetica, sans-serif" font-size="28" font-weight="800" text-anchor="start" x="105" y="212">1  Input history</text>
  <text fill="#5A6578" font-family="Inter, Arial, Helvetica, sans-serif" font-size="18" font-weight="400" text-anchor="start" x="105" y="242">Humanoid robot trajectories</text>
  <rect fill="white" height="58" opacity="0.96" rx="12" ry="12" stroke="#1F73A8" stroke-width="1.8" width="135" x="105" y="277"/>
  <polyline fill="none" opacity="0.85" points="119,312.0 134,317.4832883673924 149,318.8169334161474 164,314.9916591616368 179,308.90235689693606 194,305.1572891763443 209,306.5906485871081" stroke="#1F73A8" stroke-width="2.0"/>
  <rect fill="white" height="58" opacity="0.96" rx="12" ry="12" stroke="#1F73A8" stroke-width="1.8" width="135" x="116" y="284"/>
  <polyline fill="none" opacity="0.85" points="130,324.89029689365526 145,325.6241006138119 160,321.34491705109133 175,315.29114701364057 190,312.0441629745657 205,314.06121772100727 220,319.81584443395343" stroke="#1F73A8" stroke-width="2.0"/>
  <rect fill="white" height="58" opacity="0.96" rx="12" ry="12" stroke="#1F73A8" stroke-width="1.8" width="135" x="127" y="291"/>
  <polyline fill="none" opacity="0.85" points="141,332.3650819877798 156,327.6747453044979 171,321.716994763401 186,319.0005371970513 201,321.58113353489375 216,327.5058399166147 231,332.2909566706814" stroke="#1F73A8" stroke-width="2.0"/>
  <rect fill="white" height="58" opacity="0.96" rx="12" ry="12" stroke="#1F73A8" stroke-width="1.8" width="135" x="138" y="298"/>
  <polyline fill="none" opacity="0.85" points="152,333.9878400564191 167,328.1856368857122 182,326.0268477381491 197,329.1452012018165 212,335.18078954459367 227,339.5659998374232 242,338.982192356618" stroke="#1F73A8" stroke-width="2.0"/>
  <text fill="#172033" font-family="Inter, Arial, Helvetica, sans-serif" font-size="24" font-weight="800" text-anchor="start" x="280" y="307">states</text>
  <text fill="#5A6578" font-family="JetBrains Mono, Consolas, monospace" font-size="16" font-weight="400" text-anchor="start" x="280" y="335">s_{t-T:t}</text>
  <rect fill="white" height="58" opacity="0.96" rx="12" ry="12" stroke="#187765" stroke-width="1.8" width="135" x="105" y="382"/>
  <polyline fill="none" opacity="0.85" points="119,417.0 134,422.4832883673924 149,423.8169334161474 164,419.9916591616368 179,413.90235689693606 194,410.1572891763443 209,411.5906485871081" stroke="#187765" stroke-width="2.0"/>
  <rect fill="white" height="58" opacity="0.96" rx="12" ry="12" stroke="#187765" stroke-width="1.8" width="135" x="116" y="389"/>
  <polyline fill="none" opacity="0.85" points="130,429.89029689365526 145,430.6241006138119 160,426.34491705109133 175,420.29114701364057 190,417.0441629745657 205,419.06121772100727 220,424.81584443395343" stroke="#187765" stroke-width="2.0"/>
  <rect fill="white" height="58" opacity="0.96" rx="12" ry="12" stroke="#187765" stroke-width="1.8" width="135" x="127" y="396"/>
  <polyline fill="none" opacity="0.85" points="141,437.3650819877798 156,432.6747453044979 171,426.716994763401 186,424.0005371970513 201,426.58113353489375 216,432.5058399166147 231,437.2909566706814" stroke="#187765" stroke-width="2.0"/>
  <rect fill="white" height="58" opacity="0.96" rx="12" ry="12" stroke="#187765" stroke-width="1.8" width="135" x="138" y="403"/>
  <polyline fill="none" opacity="0.85" points="152,438.9878400564191 167,433.1856368857122 182,431.0268477381491 197,434.1452012018165 212,440.18078954459367 227,444.5659998374232 242,443.982192356618" stroke="#187765" stroke-width="2.0"/>
  <text fill="#172033" font-family="Inter, Arial, Helvetica, sans-serif" font-size="24" font-weight="800" text-anchor="start" x="280" y="412">actions</text>
  <text fill="#5A6578" font-family="JetBrains Mono, Consolas, monospace" font-size="16" font-weight="400" text-anchor="start" x="280" y="440">a_{t-T:t-1}</text>
  <rect fill="#F1F4F8" height="36" rx="14" ry="14" stroke="#B8C4D1" stroke-width="2" width="180" x="145" y="458"/>
  <text fill="#172033" font-family="JetBrains Mono, Consolas, monospace" font-size="16" font-weight="800" text-anchor="middle" x="235" y="482">concat  [s_t ; a_t]</text>
  <rect fill="#182230" height="345" opacity="0.075" rx="26" ry="26" stroke="none" width="335" x="474" y="171"/>
  <rect fill="#EBF6FC" height="345" rx="26" ry="26" stroke="#83B6D1" stroke-width="2" width="335" x="470" y="165"/>
  <text fill="#0E3A59" font-family="Inter, Arial, Helvetica, sans-serif" font-size="26" font-weight="800" text-anchor="start" x="502" y="212">2  State-action encoder</text>
  <text fill="#5A6578" font-family="Inter, Arial, Helvetica, sans-serif" font-size="17" font-weight="400" text-anchor="start" x="502" y="242">Project each time step to latent tokens</text>
  <rect fill="white" height="42" rx="14" ry="14" stroke="#93BED4" stroke-width="1.8" width="220" x="520" y="288"/>
  <text fill="#172033" font-family="Inter, Arial, Helvetica, sans-serif" font-size="20" font-weight="800" text-anchor="start" x="548" y="315">Linear</text>
  <text fill="#5A6578" font-family="JetBrains Mono, Consolas, monospace" font-size="14" font-weight="400" text-anchor="start" x="642" y="315">d_s+d_a -&gt; D</text>
  <line marker-end="url(#arrowMuted)" stroke="#1F73A8" stroke-width="2.1" x1="630" x2="630" y1="330" y2="347"/>
  <rect fill="white" height="42" rx="14" ry="14" stroke="#93BED4" stroke-width="1.8" width="220" x="520" y="352"/>
  <text fill="#172033" font-family="Inter, Arial, Helvetica, sans-serif" font-size="20" font-weight="800" text-anchor="start" x="548" y="379">GELU</text>
  <text fill="#5A6578" font-family="JetBrains Mono, Consolas, monospace" font-size="14" font-weight="400" text-anchor="start" x="642" y="379">activation</text>
  <line marker-end="url(#arrowMuted)" stroke="#1F73A8" stroke-width="2.1" x1="630" x2="630" y1="394" y2="411"/>
  <rect fill="white" height="42" rx="14" ry="14" stroke="#93BED4" stroke-width="1.8" width="220" x="520" y="416"/>
  <text fill="#172033" font-family="Inter, Arial, Helvetica, sans-serif" font-size="20" font-weight="800" text-anchor="start" x="548" y="443">Linear</text>
  <text fill="#5A6578" font-family="JetBrains Mono, Consolas, monospace" font-size="14" font-weight="400" text-anchor="start" x="642" y="443">D -&gt; D</text>
  <rect fill="#D9EDF8" height="42" rx="16" ry="16" stroke="#83B6D1" stroke-width="2" width="250" x="512" y="466"/>
  <text fill="#0E3A59" font-family="JetBrains Mono, Consolas, monospace" font-size="16" font-weight="800" text-anchor="middle" x="637" y="493">latent sequence z_{0:T}</text>
  <rect fill="#182230" height="345" opacity="0.075" rx="26" ry="26" stroke="none" width="500" x="874" y="171"/>
  <rect fill="white" height="345" rx="26" ry="26" stroke="#B8C4D1" stroke-width="2" width="500" x="870" y="165"/>
  <text fill="#0E3A59" font-family="Inter, Arial, Helvetica, sans-serif" font-size="26" font-weight="800" text-anchor="start" x="900" y="212">3  Gated Diag-SSM backbone</text>
  <text fill="#5A6578" font-family="Inter, Arial, Helvetica, sans-serif" font-size="17" font-weight="400" text-anchor="start" x="900" y="242">Stack L blocks for long-range temporal memory</text>
  <rect fill="#F8FBFD" height="128" rx="20" ry="20" stroke="#9BA8B7" stroke-width="1.8" width="330" x="915" y="312"/>
  <text fill="#172033" font-family="Inter, Arial, Helvetica, sans-serif" font-size="19" font-weight="800" text-anchor="start" x="937" y="346">SSM Block 4</text>
  <rect fill="#E8EDF4" height="31" rx="10" ry="10" stroke="#BBC5D1" stroke-width="1.3" width="65" x="937" y="370"/>
  <text fill="#172033" font-family="Inter, Arial, Helvetica, sans-serif" font-size="13" font-weight="800" text-anchor="middle" x="969.5" y="391">LN</text>
  <rect fill="#D9EDF8" height="31" rx="10" ry="10" stroke="#83B6D1" stroke-width="1.3" width="65" x="1010" y="370"/>
  <text fill="#172033" font-family="Inter, Arial, Helvetica, sans-serif" font-size="13" font-weight="800" text-anchor="middle" x="1042.5" y="391">DiagSSM</text>
  <rect fill="#FFF0DF" height="31" rx="10" ry="10" stroke="#E0A064" stroke-width="1.3" width="65" x="1083" y="370"/>
  <text fill="#172033" font-family="Inter, Arial, Helvetica, sans-serif" font-size="13" font-weight="800" text-anchor="middle" x="1115.5" y="391">Gate</text>
  <rect fill="#DFF3EF" height="31" rx="10" ry="10" stroke="#75BAAE" stroke-width="1.3" width="65" x="1156" y="370"/>
  <text fill="#172033" font-family="Inter, Arial, Helvetica, sans-serif" font-size="13" font-weight="800" text-anchor="middle" x="1188.5" y="391">Residual</text>
  <rect fill="#F8FBFD" height="128" rx="20" ry="20" stroke="#9BA8B7" stroke-width="1.8" width="330" x="939" y="295"/>
  <text fill="#172033" font-family="Inter, Arial, Helvetica, sans-serif" font-size="19" font-weight="800" text-anchor="start" x="961" y="329">SSM Block 3</text>
  <rect fill="#E8EDF4" height="31" rx="10" ry="10" stroke="#BBC5D1" stroke-width="1.3" width="65" x="961" y="353"/>
  <text fill="#172033" font-family="Inter, Arial, Helvetica, sans-serif" font-size="13" font-weight="800" text-anchor="middle" x="993.5" y="374">LN</text>
  <rect fill="#D9EDF8" height="31" rx="10" ry="10" stroke="#83B6D1" stroke-width="1.3" width="65" x="1034" y="353"/>
  <text fill="#172033" font-family="Inter, Arial, Helvetica, sans-serif" font-size="13" font-weight="800" text-anchor="middle" x="1066.5" y="374">DiagSSM</text>
  <rect fill="#FFF0DF" height="31" rx="10" ry="10" stroke="#E0A064" stroke-width="1.3" width="65" x="1107" y="353"/>
  <text fill="#172033" font-family="Inter, Arial, Helvetica, sans-serif" font-size="13" font-weight="800" text-anchor="middle" x="1139.5" y="374">Gate</text>
  <rect fill="#DFF3EF" height="31" rx="10" ry="10" stroke="#75BAAE" stroke-width="1.3" width="65" x="1180" y="353"/>
  <text fill="#172033" font-family="Inter, Arial, Helvetica, sans-serif" font-size="13" font-weight="800" text-anchor="middle" x="1212.5" y="374">Residual</text>
  <rect fill="#F8FBFD" height="128" rx="20" ry="20" stroke="#9BA8B7" stroke-width="1.8" width="330" x="963" y="278"/>
  <text fill="#172033" font-family="Inter, Arial, Helvetica, sans-serif" font-size="19" font-weight="800" text-anchor="start" x="985" y="312">SSM Block 2</text>
  <rect fill="#E8EDF4" height="31" rx="10" ry="10" stroke="#BBC5D1" stroke-width="1.3" width="65" x="985" y="336"/>
  <text fill="#172033" font-family="Inter, Arial, Helvetica, sans-serif" font-size="13" font-weight="800" text-anchor="middle" x="1017.5" y="357">LN</text>
  <rect fill="#D9EDF8" height="31" rx="10" ry="10" stroke="#83B6D1" stroke-width="1.3" width="65" x="1058" y="336"/>
  <text fill="#172033" font-family="Inter, Arial, Helvetica, sans-serif" font-size="13" font-weight="800" text-anchor="middle" x="1090.5" y="357">DiagSSM</text>
  <rect fill="#FFF0DF" height="31" rx="10" ry="10" stroke="#E0A064" stroke-width="1.3" width="65" x="1131" y="336"/>
  <text fill="#172033" font-family="Inter, Arial, Helvetica, sans-serif" font-size="13" font-weight="800" text-anchor="middle" x="1163.5" y="357">Gate</text>
  <rect fill="#DFF3EF" height="31" rx="10" ry="10" stroke="#75BAAE" stroke-width="1.3" width="65" x="1204" y="336"/>
  <text fill="#172033" font-family="Inter, Arial, Helvetica, sans-serif" font-size="13" font-weight="800" text-anchor="middle" x="1236.5" y="357">Residual</text>
  <rect fill="#F8FBFD" height="128" rx="20" ry="20" stroke="#9BA8B7" stroke-width="1.8" width="330" x="987" y="261"/>
  <text fill="#172033" font-family="Inter, Arial, Helvetica, sans-serif" font-size="19" font-weight="800" text-anchor="start" x="1009" y="295">SSM Block 1</text>
  <rect fill="#E8EDF4" height="31" rx="10" ry="10" stroke="#BBC5D1" stroke-width="1.3" width="65" x="1009" y="319"/>
  <text fill="#172033" font-family="Inter, Arial, Helvetica, sans-serif" font-size="13" font-weight="800" text-anchor="middle" x="1041.5" y="340">LN</text>
  <rect fill="#D9EDF8" height="31" rx="10" ry="10" stroke="#83B6D1" stroke-width="1.3" width="65" x="1082" y="319"/>
  <text fill="#172033" font-family="Inter, Arial, Helvetica, sans-serif" font-size="13" font-weight="800" text-anchor="middle" x="1114.5" y="340">DiagSSM</text>
  <rect fill="#FFF0DF" height="31" rx="10" ry="10" stroke="#E0A064" stroke-width="1.3" width="65" x="1155" y="319"/>
  <text fill="#172033" font-family="Inter, Arial, Helvetica, sans-serif" font-size="13" font-weight="800" text-anchor="middle" x="1187.5" y="340">Gate</text>
  <rect fill="#DFF3EF" height="31" rx="10" ry="10" stroke="#75BAAE" stroke-width="1.3" width="65" x="1228" y="319"/>
  <text fill="#172033" font-family="Inter, Arial, Helvetica, sans-serif" font-size="13" font-weight="800" text-anchor="middle" x="1260.5" y="340">Residual</text>
  <rect fill="#F1F4F8" height="104" rx="18" ry="18" stroke="#C2CBD7" stroke-width="2" width="112" x="1220" y="303"/>
  <text fill="#5A6578" font-family="Inter, Arial, Helvetica, sans-serif" font-size="16" font-weight="800" text-anchor="middle" x="1276" y="333">hidden</text>
  <text fill="#5A6578" font-family="Inter, Arial, Helvetica, sans-serif" font-size="16" font-weight="800" text-anchor="middle" x="1276" y="357">memory</text>
  <ellipse cx="1276" cy="383" fill="none" opacity="0.7" rx="38" ry="7" stroke="#1F73A8" stroke-width="1.8"/>
  <ellipse cx="1276" cy="391" fill="none" opacity="0.7" rx="38" ry="7" stroke="#1F73A8" stroke-width="1.8"/>
  <ellipse cx="1276" cy="399" fill="none" opacity="0.7" rx="38" ry="7" stroke="#1F73A8" stroke-width="1.8"/>
  <ellipse cx="1276" cy="407" fill="none" opacity="0.7" rx="38" ry="7" stroke="#1F73A8" stroke-width="1.8"/>
  <rect fill="#182230" height="345" opacity="0.075" rx="26" ry="26" stroke="none" width="280" x="1454" y="171"/>
  <rect fill="#DFF3EF" height="345" rx="26" ry="26" stroke="#75BAAE" stroke-width="2" width="280" x="1450" y="165"/>
  <text fill="#187765" font-family="Inter, Arial, Helvetica, sans-serif" font-size="26" font-weight="800" text-anchor="start" x="1482" y="212">4  Prediction head</text>
  <text fill="#5A6578" font-family="Inter, Arial, Helvetica, sans-serif" font-size="17" font-weight="400" text-anchor="start" x="1482" y="242">Decode last hidden token</text>
  <rect fill="white" height="40" rx="14" ry="14" stroke="#8AC7BB" stroke-width="1.8" width="200" x="1495" y="298"/>
  <text fill="#172033" font-family="Inter, Arial, Helvetica, sans-serif" font-size="17" font-weight="800" text-anchor="middle" x="1595" y="324">LayerNorm</text>
  <line marker-end="url(#arrowGreen)" stroke="#187765" stroke-width="2.2" x1="1595" x2="1595" y1="338" y2="354"/>
  <rect fill="white" height="40" rx="14" ry="14" stroke="#8AC7BB" stroke-width="1.8" width="200" x="1495" y="357"/>
  <text fill="#172033" font-family="Inter, Arial, Helvetica, sans-serif" font-size="17" font-weight="800" text-anchor="middle" x="1595" y="383">FC + GELU + FC</text>
  <line marker-end="url(#arrowGreen)" stroke="#187765" stroke-width="2.2" x1="1595" x2="1595" y1="397" y2="413"/>
  <rect fill="white" height="40" rx="14" ry="14" stroke="#8AC7BB" stroke-width="1.8" width="200" x="1495" y="416"/>
  <text fill="#172033" font-family="Inter, Arial, Helvetica, sans-serif" font-size="17" font-weight="800" text-anchor="middle" x="1595" y="442">residual state add</text>
  <rect fill="#F5FFFD" height="42" rx="16" ry="16" stroke="#75BAAE" stroke-width="2" width="214" x="1488" y="461"/>
  <text fill="#187765" font-family="JetBrains Mono, Consolas, monospace" font-size="15" font-weight="800" text-anchor="middle" x="1595" y="488">s_hat_{t+1} = s_t + delta_s</text>
  <line marker-end="url(#arrow)" stroke="#0E3A59" stroke-width="4" x1="400" x2="470" y1="338" y2="338"/>
  <line marker-end="url(#arrow)" stroke="#0E3A59" stroke-width="4" x1="805" x2="870" y1="338" y2="338"/>
  <line marker-end="url(#arrow)" stroke="#0E3A59" stroke-width="4" x1="1370" x2="1450" y1="338" y2="338"/>
  <rect fill="#182230" height="350" opacity="0.075" rx="30" ry="30" stroke="none" width="1060" x="104" y="636"/>
  <rect fill="white" height="350" rx="30" ry="30" stroke="#B8C4D1" stroke-width="2" width="1060" x="100" y="630"/>
  <text fill="#0E3A59" font-family="Inter, Arial, Helvetica, sans-serif" font-size="28" font-weight="800" text-anchor="start" x="138" y="680">Gated Diag-SSM block detail</text>
  <text fill="#5A6578" font-family="Inter, Arial, Helvetica, sans-serif" font-size="17" font-weight="400" text-anchor="start" x="138" y="712">LayerNorm, diagonal SSM convolution, gate fusion, and residual update.</text>
  <rect fill="#182230" height="72" opacity="0.075" rx="18" ry="18" stroke="none" width="148" x="139" y="806"/>
  <rect fill="#F1F4F8" height="72" rx="18" ry="18" stroke="#B7C0CC" stroke-width="2" width="148" x="135" y="800"/>
  <text fill="#172033" font-family="JetBrains Mono, Consolas, monospace" font-size="22" font-weight="800" text-anchor="middle" x="209" y="829">z</text>
  <text fill="#5A6578" font-family="JetBrains Mono, Consolas, monospace" font-size="15" font-weight="400" text-anchor="middle" x="209" y="858">(B,T,D)</text>
  <rect fill="#182230" height="72" opacity="0.075" rx="18" ry="18" stroke="none" width="156" x="334" y="806"/>
  <rect fill="#E8EDF4" height="72" rx="18" ry="18" stroke="#B7C0CC" stroke-width="2" width="156" x="330" y="800"/>
  <text fill="#172033" font-family="Inter, Arial, Helvetica, sans-serif" font-size="20" font-weight="800" text-anchor="middle" x="408" y="845">LayerNorm</text>
  <rect fill="#182230" height="88" opacity="0.075" rx="20" ry="20" stroke="none" width="215" x="544" y="776"/>
  <rect fill="#EBF6FC" height="88" rx="20" ry="20" stroke="#83B6D1" stroke-width="2" width="215" x="540" y="770"/>
  <text fill="#0E3A59" font-family="Inter, Arial, Helvetica, sans-serif" font-size="22" font-weight="800" text-anchor="middle" x="647" y="803">DiagSSM</text>
  <text fill="#5A6578" font-family="JetBrains Mono, Consolas, monospace" font-size="15" font-weight="400" text-anchor="middle" x="647" y="830">A diagonal, B, C, D</text>
  <rect fill="#182230" height="56" opacity="0.075" rx="18" ry="18" stroke="none" width="215" x="544" y="889"/>
  <rect fill="#D9EDF8" height="56" rx="18" ry="18" stroke="#83B6D1" stroke-width="2" width="215" x="540" y="883"/>
  <text fill="#0E3A59" font-family="Inter, Arial, Helvetica, sans-serif" font-size="17" font-weight="800" text-anchor="middle" x="647" y="919">causal FFT conv K</text>
  <rect fill="#182230" height="72" opacity="0.075" rx="18" ry="18" stroke="none" width="168" x="809" y="806"/>
  <rect fill="#FFF0DF" height="72" rx="18" ry="18" stroke="#E0A064" stroke-width="2" width="168" x="805" y="800"/>
  <text fill="#D06B18" font-family="Inter, Arial, Helvetica, sans-serif" font-size="22" font-weight="800" text-anchor="middle" x="889" y="830">Gate</text>
  <text fill="#5A6578" font-family="JetBrains Mono, Consolas, monospace" font-size="15" font-weight="400" text-anchor="middle" x="889" y="857">sigmoid(W_g z)</text>
  <rect fill="#182230" height="72" opacity="0.075" rx="18" ry="18" stroke="none" width="120" x="1014" y="806"/>
  <rect fill="#DFF3EF" height="72" rx="18" ry="18" stroke="#75BAAE" stroke-width="2" width="120" x="1010" y="800"/>
  <text fill="#187765" font-family="Inter, Arial, Helvetica, sans-serif" font-size="21" font-weight="800" text-anchor="middle" x="1070" y="829">Fuse</text>
  <text fill="#5A6578" font-family="JetBrains Mono, Consolas, monospace" font-size="13" font-weight="400" text-anchor="middle" x="1070" y="856">g*y+(1-g)*z</text>
  <line marker-end="url(#arrowMuted)" stroke="#5A6578" stroke-width="2.7" x1="283" x2="330" y1="836" y2="836"/>
  <line marker-end="url(#arrow)" stroke="#0E3A59" stroke-width="2.7" x1="486" x2="540" y1="836" y2="814"/>
  <line marker-end="url(#arrow)" stroke="#0E3A59" stroke-width="2.4" x1="647" x2="647" y1="858" y2="883"/>
  <path d="M755 911 C840 915, 915 870, 1010 836" fill="none" marker-end="url(#arrow)" stroke="#0E3A59" stroke-width="2.7"/>
  <line marker-end="url(#arrowOrange)" stroke="#D06B18" stroke-dasharray="7,6" stroke-width="2.4" x1="486" x2="805" y1="836" y2="836"/>
  <line marker-end="url(#arrowOrange)" stroke="#D06B18" stroke-width="2.7" x1="973" x2="1010" y1="836" y2="836"/>
  <path d="M209 800 C260 710, 1025 710, 1070 800" fill="none" marker-end="url(#arrowGreen)" stroke="#187765" stroke-dasharray="8,7" stroke-width="2.7"/>
  <text fill="#187765" font-family="Inter, Arial, Helvetica, sans-serif" font-size="16" font-weight="800" text-anchor="middle" x="645" y="734">residual skip</text>
  <rect fill="#F1F4F8" height="38" rx="15" ry="15" stroke="#C2CBD7" stroke-width="2" width="300" x="155" y="906"/>
  <text fill="#5A6578" font-family="JetBrains Mono, Consolas, monospace" font-size="15" font-weight="800" text-anchor="middle" x="305" y="931">y = DiagSSM(LN(z))</text>
  <rect fill="#FFF0DF" height="38" rx="15" ry="15" stroke="#E0A064" stroke-width="2" width="360" x="480" y="906"/>
  <text fill="#D06B18" font-family="JetBrains Mono, Consolas, monospace" font-size="15" font-weight="800" text-anchor="middle" x="660" y="931">g = sigmoid(W_g LN(z))</text>
  <rect fill="#DFF3EF" height="38" rx="15" ry="15" stroke="#75BAAE" stroke-width="2" width="240" x="865" y="906"/>
  <text fill="#187765" font-family="JetBrains Mono, Consolas, monospace" font-size="15" font-weight="800" text-anchor="middle" x="985" y="931">out = z + Fuse</text>
  <rect fill="#182230" height="350" opacity="0.075" rx="30" ry="30" stroke="none" width="515" x="1219" y="636"/>
  <rect fill="white" height="350" rx="30" ry="30" stroke="#B8C4D1" stroke-width="2" width="515" x="1215" y="630"/>
  <text fill="#0E3A59" font-family="Inter, Arial, Helvetica, sans-serif" font-size="28" font-weight="800" text-anchor="start" x="1253" y="680">Rollout and MPC usage</text>
  <text fill="#5A6578" font-family="Inter, Arial, Helvetica, sans-serif" font-size="17" font-weight="400" text-anchor="start" x="1253" y="712">Predictions support training loss and online planning.</text>
  <rect fill="#182230" height="130" opacity="0.075" rx="22" ry="22" stroke="none" width="195" x="1264" y="766"/>
  <rect fill="#EEEAFE" height="130" rx="22" ry="22" stroke="#AAA1DE" stroke-width="2" width="195" x="1260" y="760"/>
  <text fill="#6554C0" font-family="Inter, Arial, Helvetica, sans-serif" font-size="22" font-weight="800" text-anchor="middle" x="1357" y="796">Training</text>
  <text fill="#5A6578" font-family="Inter, Arial, Helvetica, sans-serif" font-size="16" font-weight="400" text-anchor="middle" x="1357" y="827">single-step MSE</text>
  <text fill="#5A6578" font-family="Inter, Arial, Helvetica, sans-serif" font-size="16" font-weight="400" text-anchor="middle" x="1357" y="853">+ H-step rollout</text>
  <rect fill="#182230" height="130" opacity="0.075" rx="22" ry="22" stroke="none" width="200" x="1496" y="766"/>
  <rect fill="#FFF0DF" height="130" rx="22" ry="22" stroke="#E0A064" stroke-width="2" width="200" x="1492" y="760"/>
  <text fill="#D06B18" font-family="Inter, Arial, Helvetica, sans-serif" font-size="22" font-weight="800" text-anchor="middle" x="1592" y="796">MPC</text>
  <text fill="#5A6578" font-family="Inter, Arial, Helvetica, sans-serif" font-size="16" font-weight="400" text-anchor="middle" x="1592" y="827">optimize actions</text>
  <text fill="#5A6578" font-family="Inter, Arial, Helvetica, sans-serif" font-size="16" font-weight="400" text-anchor="middle" x="1592" y="853">execute first action</text>
  <line marker-end="url(#arrowMuted)" stroke="#5A6578" stroke-dasharray="7,6" stroke-width="2.2" x1="1455" x2="1492" y1="825" y2="825"/>
  <path d="M1668 885 C1715 917, 1510 925, 1530 855" fill="none" marker-end="url(#arrowOrange)" stroke="#D06B18" stroke-dasharray="6,6" stroke-width="2.0"/>
  <text fill="#D06B18" font-family="Inter, Arial, Helvetica, sans-serif" font-size="14" font-weight="700" text-anchor="middle" x="1595" y="933">receding horizon</text>
  <path d="M1595 510 C1595 570, 1593 610, 1593 760" fill="none" marker-end="url(#arrowOrange)" stroke="#D06B18" stroke-width="3.2"/>
  <rect fill="#EEF3F8" height="38" rx="18" ry="18" stroke="#D6DEE8" stroke-width="1" width="1630" x="100" y="1000"/>
  <text fill="#5A6578" font-family="Inter, Arial, Helvetica, sans-serif" font-size="17" font-weight="700" text-anchor="middle" x="915" y="1026">Key message: lightweight SSM memory replaces expensive sequence modeling, while the predicted next state closes the MPC control loop.</text>
</svg>
